<?xml version="1.0" encoding="utf-8"?>
<?xml-stylesheet type="text/css" href="chart.css" ?>
<!DOCTYPE svg PUBLIC "-//W3C//DTD SVG 1.1//EN" "http://www.w3.org/Graphics/SVG/1.1/DTD/svg11.dtd">
<svg version="1.1" xmlns="http://www.w3.org/2000/svg" width="960" height="250"><g transform="translate(50,20)"><g class="candlestick"><g class="data"><path class="candle body up" d="M 0.5338932213557288 195.98540145985405 l 3.5592881423715257 0 L 4.093181363727254 194.9747332959012 l -3.5592881423715257 0 L 0.5338932213557288 195.98540145985405 M 4.983003399320136 192.4480628860191 l 3.5592881423715257 0 L 8.542291541691661 183.7450870297586 l -3.5592881423715257 0 L 4.983003399320136 192.4480628860191 M 9.432113577284543 181.77989893318363 l 3.5592881423715257 0 L 12.991401719656068 179.3093767546322 l -3.5592881423715257 0 L 9.432113577284543 181.77989893318363 M 18.330333933213353 187.05783267827064 l 3.5592881423715257 0 L 21.889622075584878 183.7450870297586 l -3.5592881423715257 0 L 18.330333933213353 187.05783267827064 M 22.77944411117776 181.83604716451433 l 3.5592881423715257 0 L 26.338732253549285 179.6462661426165 l -3.5592881423715257 0 L 22.77944411117776 181.83604716451433 M 31.677664467106574 176.50196518809656 l 3.5592881423715257 0 L 35.2369526094781 176.33352049410445 l -3.5592881423715257 0 L 31.677664467106574 176.50196518809656 M 40.57588482303538 176.78270634475015 l 3.5592881423715257 0 L 44.13517296540691 171.89781021897812 l -3.5592881423715257 0 L 40.57588482303538 176.78270634475015 M 45.024995000999795 169.48343627175743 l 3.5592881423715257 0 L 48.58428314337132 164.65468837731612 l -3.5592881423715257 0 L 45.024995000999795 169.48343627175743 M 58.37232553489301 167.79898933183605 l 3.5592881423715257 0 L 61.93161367726454 158.53453116226842 l -3.5592881423715257 0 L 58.37232553489301 167.79898933183605 M 76.16876624675065 172.79618192026953 l 3.5592881423715257 0 L 79.72805438912218 158.36608646827625 l -3.5592881423715257 0 L 76.16876624675065 172.79618192026953 M 80.61787642471505 159.65749578888264 l 3.5592881423715257 0 L 84.17716456708658 157.46771476698487 l -3.5592881423715257 0 L 80.61787642471505 159.65749578888264 M 85.06698660267946 155.8955642897249 l 3.5592881423715257 0 L 88.62627474505099 153.25659741718138 l -3.5592881423715257 0 L 85.06698660267946 155.8955642897249 M 89.51609678064386 151.34755755193711 l 3.5592881423715257 0 L 93.07538492301539 144.77821448624368 l -3.5592881423715257 0 L 89.51609678064386 151.34755755193711 M 102.86342731453708 135.00842223469965 l 3.5592881423715257 0 L 106.4227154569086 133.71701291409323 l -3.5592881423715257 0 L 102.86342731453708 135.00842223469965 M 107.31253749250149 130.62886019090402 l 3.5592881423715257 0 L 110.87182563487302 128.4952274003369 l -3.5592881423715257 0 L 107.31253749250149 130.62886019090402 M 111.7616476704659 129.05670971364404 l 3.5592881423715257 0 L 115.32093581283743 123.72262773722629 l -3.5592881423715257 0 L 111.7616476704659 129.05670971364404 M 116.21075784843029 129.89893318360473 l 3.5592881423715257 0 L 119.77004599080182 129.39359910162833 l -3.5592881423715257 0 L 116.21075784843029 129.89893318360473 M 120.65986802639472 130.85345311622686 l 3.5592881423715257 0 L 124.21915616876625 128.32678270634477 l -3.5592881423715257 0 L 120.65986802639472 130.85345311622686 M 125.10897820435912 129.95508141493542 l 3.5592881423715257 0 L 128.66826634673063 129.11285794497473 l -3.5592881423715257 0 L 125.10897820435912 129.95508141493542 M 134.00719856028792 131.9764177428411 l 3.5592881423715257 0 L 137.56648670265943 124.84559236384057 l -3.5592881423715257 0 L 134.00719856028792 131.9764177428411 M 151.80363927214555 142.70072992700733 l 3.5592881423715257 0 L 155.36292741451706 136.01909039865248 l -3.5592881423715257 0 L 151.80363927214555 142.70072992700733 M 160.70185962807437 140.17405951712522 l 3.5592881423715257 0 L 164.2611477704459 133.43627175743967 l -3.5592881423715257 0 L 160.70185962807437 140.17405951712522 M 169.6000799840032 130.46041549691188 l 3.5592881423715257 0 L 173.15936812637472 124.28411005053343 l -3.5592881423715257 0 L 169.6000799840032 130.46041549691188 M 174.0491901619676 124.39640651319486 l 3.5592881423715257 0 L 177.60847830433912 118.27624929814712 l -3.5592881423715257 0 L 174.0491901619676 124.39640651319486 M 178.498300339932 107.21504772599666 l 3.5592881423715257 0 L 182.05758848230352 106.9904548006738 l -3.5592881423715257 0 L 178.498300339932 107.21504772599666 M 191.84563087382523 120.85906793935993 l 3.5592881423715257 0 L 195.40491901619674 120.01684446939925 l -3.5592881423715257 0 L 191.84563087382523 120.85906793935993 M 196.29474105178963 117.32172936552499 l 3.5592881423715257 0 L 199.85402919416114 116.98483997754073 l -3.5592881423715257 0 L 196.29474105178963 117.32172936552499 M 218.54029194161166 146.63110612015726 l 3.5592881423715257 0 L 222.09958008398317 129.56204379562044 l -3.5592881423715257 0 L 218.54029194161166 146.63110612015726 M 231.88762247550488 143.0937675463223 l 3.5592881423715257 0 L 235.4469106178764 130.1235261089276 l -3.5592881423715257 0 L 231.88762247550488 143.0937675463223 M 254.1331733653269 153.14430095451996 l 3.5592881423715257 0 L 257.69246150769845 149.77540707467716 l -3.5592881423715257 0 L 254.1331733653269 153.14430095451996 M 258.58228354329134 151.85289163391357 l 3.5592881423715257 0 L 262.1415716856629 137.9281302638967 l -3.5592881423715257 0 L 258.58228354329134 151.85289163391357 M 263.03139372125577 137.9842784952274 l 3.5592881423715257 0 L 266.5906818636273 136.35597978663674 l -3.5592881423715257 0 L 263.03139372125577 137.9842784952274 M 276.37872425514894 151.68444693992143 l 3.5592881423715257 0 L 279.9380123975205 151.12296462661428 l -3.5592881423715257 0 L 276.37872425514894 151.68444693992143 M 298.62427514497097 160.66816395283553 l 3.5592881423715257 0 L 302.1835632873425 153.76193149915778 l -3.5592881423715257 0 L 298.62427514497097 160.66816395283553 M 303.07338532293534 153.31274564851208 l 3.5592881423715257 0 L 306.6326734653069 150.393037619315 l -3.5592881423715257 0 L 303.07338532293534 153.31274564851208 M 307.52249550089977 148.93318360471648 l 3.5592881423715257 0 L 311.0817836432713 147.47332959011794 l -3.5592881423715257 0 L 307.52249550089977 148.93318360471648 M 311.9716056788642 148.0909601347558 l 3.5592881423715257 0 L 315.53089382123574 147.19258843346435 l -3.5592881423715257 0 L 311.9716056788642 148.0909601347558 M 320.869826034793 150.56148231330712 l 3.5592881423715257 0 L 324.42911417716454 138.43346434587312 l -3.5592881423715257 0 L 320.869826034793 150.56148231330712 M 325.3189362127574 141.07243121841663 l 3.5592881423715257 0 L 328.87822435512896 140.00561482313307 l -3.5592881423715257 0 L 325.3189362127574 141.07243121841663 M 334.2171565686862 141.57776530039305 l 3.5592881423715257 0 L 337.77644471105776 137.19820325659742 l -3.5592881423715257 0 L 334.2171565686862 141.57776530039305 M 338.6662667466506 138.43346434587312 l 3.5592881423715257 0 L 342.22555488902213 129.33745087029757 l -3.5592881423715257 0 L 338.6662667466506 138.43346434587312 M 347.5644871025794 124.90174059517126 l 3.5592881423715257 0 L 351.12377524495093 120.40988208871423 l -3.5592881423715257 0 L 347.5644871025794 124.90174059517126 M 352.0135972805438 121.64514317798991 l 3.5592881423715257 0 L 355.57288542291536 112.04379562043798 l -3.5592881423715257 0 L 352.0135972805438 121.64514317798991 M 356.46270745850825 112.32453677709152 l 3.5592881423715257 0 L 360.0219956008798 109.29253228523302 l -3.5592881423715257 0 L 356.46270745850825 112.32453677709152 M 360.9118176364726 104.01459854014601 l 3.5592881423715257 0 L 364.47110577884416 103.39696799550816 l -3.5592881423715257 0 L 360.9118176364726 104.01459854014601 M 369.8100379924015 106.31667602470523 l 3.5592881423715257 0 L 373.369326134773 102.33015160022462 l -3.5592881423715257 0 L 369.8100379924015 106.31667602470523 M 374.25914817036585 103.11622683885462 l 3.5592881423715257 0 L 377.8184363127374 101.93711398090963 l -3.5592881423715257 0 L 374.25914817036585 103.11622683885462 M 378.7082583483303 99.80348119034252 l 3.5592881423715257 0 L 382.2675464907018 87.05783267827063 l -3.5592881423715257 0 L 378.7082583483303 99.80348119034252 M 400.9538092381523 107.55193711398094 l 3.5592881423715257 0 L 404.51309738052385 104.57608085345315 l -3.5592881423715257 0 L 400.9538092381523 107.55193711398094 M 414.30113977204553 105.86749017405953 l 3.5592881423715257 0 L 417.8604279144171 90.25828186412129 l -3.5592881423715257 0 L 414.30113977204553 105.86749017405953 M 418.7502499500099 87.45087029758562 l 3.5592881423715257 0 L 422.30953809238144 86.21560920830996 l -3.5592881423715257 0 L 418.7502499500099 87.45087029758562 M 423.19936012797433 88.01235261089278 l 3.5592881423715257 0 L 426.7586482703459 84.47501403705786 l -3.5592881423715257 0 L 423.19936012797433 88.01235261089278 M 432.09758048390313 90.65131948343628 l 3.5592881423715257 0 L 435.6568686262747 86.10331274564855 l -3.5592881423715257 0 L 432.09758048390313 90.65131948343628 M 440.995800839832 94.41325098259405 l 3.5592881423715257 0 L 444.55508898220353 87.22627737226279 l -3.5592881423715257 0 L 440.995800839832 94.41325098259405 M 458.7922415516896 93.62717574396409 l 3.5592881423715257 0 L 462.3515296940611 82.90286355979791 l -3.5592881423715257 0 L 458.7922415516896 93.62717574396409 M 467.69046190761844 94.9185850645705 l 3.5592881423715257 0 L 471.24975004999 93.45873104997193 l -3.5592881423715257 0 L 467.69046190761844 94.9185850645705 M 481.0377924415116 108.11341942728804 l 3.5592881423715257 0 L 484.59708058388316 101.8248175182482 l -3.5592881423715257 0 L 481.0377924415116 108.11341942728804 M 494.3851229754049 71.89781021897815 l 3.5592881423715257 0 L 497.94441111777644 60.106681639528375 l -3.5592881423715257 0 L 494.3851229754049 71.89781021897815 M 503.28334333133364 63.02638966872547 l 3.5592881423715257 0 L 506.8426314737052 59.096013475575546 l -3.5592881423715257 0 L 503.28334333133364 63.02638966872547 M 512.1815636872625 66.33913531723752 l 3.5592881423715257 0 L 515.740851829634 62.408759124087624 l -3.5592881423715257 0 L 512.1815636872625 66.33913531723752 M 516.6306738652269 61.79112857944975 l 3.5592881423715257 0 L 520.1899620075984 50.28074115665362 l -3.5592881423715257 0 L 516.6306738652269 61.79112857944975 M 525.5288942211557 53.48119034250422 l 3.5592881423715257 0 L 529.0881823635273 47.30488489612583 l -3.5592881423715257 0 L 525.5288942211557 53.48119034250422 M 534.4271145770845 51.06681639528355 l 3.5592881423715257 0 L 537.986402719456 33.380123526108974 l -3.5592881423715257 0 L 534.4271145770845 51.06681639528355 M 543.3253349330133 35.569904548006775 l 3.5592881423715257 0 L 546.8846230753849 33.54856822010112 l -3.5592881423715257 0 L 543.3253349330133 35.569904548006775 M 547.7744451109777 34.95227400336893 l 3.5592881423715257 0 L 551.3337332533492 29.281302638966878 l -3.5592881423715257 0 L 547.7744451109777 34.95227400336893 M 552.2235552889422 31.134194272880393 l 3.5592881423715257 0 L 555.7828434313137 20.46603032004498 l -3.5592881423715257 0 L 552.2235552889422 31.134194272880393 M 561.1217756448709 25.463222908478457 l 3.5592881423715257 0 L 564.6810637872425 14.008983717012939 l -3.5592881423715257 0 L 561.1217756448709 25.463222908478457 M 583.367326534693 35.457608085345385 l 3.5592881423715257 0 L 586.9266146770645 32.93093767546327 l -3.5592881423715257 0 L 583.367326534693 35.457608085345385 M 587.8164367126575 25.912408759124133 l 3.5592881423715257 0 L 591.375724855029 25.12633352049417 l -3.5592881423715257 0 L 587.8164367126575 25.912408759124133 M 592.2655468906219 20.129140932060693 l 3.5592881423715257 0 L 595.8248350329934 9.573273441886641 l -3.5592881423715257 0 L 592.2655468906219 20.129140932060693 M 605.6128774245151 14.06513194834369 l 3.5592881423715257 0 L 609.1721655668866 6.9904548006738025 l -3.5592881423715257 0 L 605.6128774245151 14.06513194834369 M 614.5110977804438 19.17462099943853 l 3.5592881423715257 0 L 618.0703859228154 13.447501403705843 l -3.5592881423715257 0 L 614.5110977804438 19.17462099943853 M 627.8584283143372 28.607523862998306 l 3.5592881423715257 0 L 631.4177164567087 25.463222908478457 l -3.5592881423715257 0 L 627.8584283143372 28.607523862998306 M 632.3075384923015 25.350926445816953 l 3.5592881423715257 0 L 635.8668266346731 22.936552498596342 l -3.5592881423715257 0 L 632.3075384923015 25.350926445816953 M 663.4513097380524 71.67321729365528 l 3.5592881423715257 0 L 667.0105978804239 69.09039865244247 l -3.5592881423715257 0 L 663.4513097380524 71.67321729365528 M 676.7986402719456 71.95395845030882 l 3.5592881423715257 0 L 680.3579284143171 59.82594048287481 l -3.5592881423715257 0 L 676.7986402719456 71.95395845030882 M 694.5950809838032 97.55755193711401 l 3.5592881423715257 0 L 698.1543691261747 91.66198764738911 l -3.5592881423715257 0 L 694.5950809838032 97.55755193711401 M 699.0441911617676 87.56316676024707 l 3.5592881423715257 0 L 702.6034793041391 84.69960696238073 l -3.5592881423715257 0 L 699.0441911617676 87.56316676024707 M 703.493301339732 76.61426165075802 l 3.5592881423715257 0 L 707.0525894821036 61.00505334081981 l -3.5592881423715257 0 L 703.493301339732 76.61426165075802 M 712.3915216956608 88.01235261089278 l 3.5592881423715257 0 L 715.9508098380323 82.79056709713646 l -3.5592881423715257 0 L 712.3915216956608 88.01235261089278 M 734.6370725854829 77.56878158338014 l 3.5592881423715257 0 L 738.1963607278544 67.57439640651322 l -3.5592881423715257 0 L 734.6370725854829 77.56878158338014 M 739.0861827634473 59.6574957888827 l 3.5592881423715257 0 L 742.6454709058188 57.523862998315565 l -3.5592881423715257 0 L 739.0861827634473 59.6574957888827 M 761.3317336532692 96.49073554183043 l 3.5592881423715257 0 L 764.8910217956408 84.92419988770357 l -3.5592881423715257 0 L 761.3317336532692 96.49073554183043 M 765.7808438312337 88.12464907355422 l 3.5592881423715257 0 L 769.3401319736053 75.77203818079732 l -3.5592881423715257 0 L 765.7808438312337 88.12464907355422 M 770.2299540091981 72.12240314430099 l 3.5592881423715257 0 L 773.7892421515696 68.07973048848964 l -3.5592881423715257 0 L 770.2299540091981 72.12240314430099 M 779.1281743651269 76.38966872543516 l 3.5592881423715257 0 L 782.6874625074985 67.68669286917466 l -3.5592881423715257 0 L 779.1281743651269 76.38966872543516 M 796.9246150769845 92.22346996069626 l 3.5592881423715257 0 L 800.4839032193561 90.03368893879843 l -3.5592881423715257 0 L 796.9246150769845 92.22346996069626 M 801.373725254949 85.87871982032568 l 3.5592881423715257 0 L 804.9330133973206 75.49129702414376 l -3.5592881423715257 0 L 801.373725254949 85.87871982032568 M 805.8228354329134 76.44581695676591 l 3.5592881423715257 0 L 809.3821235752849 75.49129702414376 l -3.5592881423715257 0 L 805.8228354329134 76.44581695676591 M 823.619276144771 86.3840539023021 l 3.5592881423715257 0 L 827.1785642871425 78.97248736664797 l -3.5592881423715257 0 L 823.619276144771 86.3840539023021 M 832.5174965006998 82.6221224031443 l 3.5592881423715257 0 L 836.0767846430714 71.78551375631667 l -3.5592881423715257 0 L 832.5174965006998 82.6221224031443 M 841.4157168566287 72.23469960696242 l 3.5592881423715257 0 L 844.9750049990002 66.95676586187537 l -3.5592881423715257 0 L 841.4157168566287 72.23469960696242 M 845.864827034593 65.44076361594614 l 3.5592881423715257 0 L 849.4241151769645 54.997192588433506 l -3.5592881423715257 0 L 845.864827034593 65.44076361594614 M 850.3139372125574 55.50252667040991 l 3.5592881423715257 0 L 853.873225354929 54.82874789444136 l -3.5592881423715257 0 L 850.3139372125574 55.50252667040991 M 868.110377924415 59.82594048287481 l 3.5592881423715257 0 L 871.6696660667866 58.422234699607 l -3.5592881423715257 0 L 868.110377924415 59.82594048287481 M 872.5594881023794 60.78046041549692 l 3.5592881423715257 0 L 876.118776244751 55.78326782706344 l -3.5592881423715257 0 L 872.5594881023794 60.78046041549692 M 885.9068186362726 61.06120157215051 l 3.5592881423715257 0 L 889.4661067786442 58.36608646827625 l -3.5592881423715257 0 L 885.9068186362726 61.06120157215051"></path><path class="candle body down" d="M 13.881223755248948 183.0151600224593 l 3.5592881423715257 0 L 17.440511897620475 188.85457608085346 l -3.5592881423715257 0 L 13.881223755248948 183.0151600224593 M 27.228554289142167 175.49129702414373 l 3.5592881423715257 0 L 30.787842431513692 179.5901179112858 l -3.5592881423715257 0 L 27.228554289142167 175.49129702414373 M 36.12677464507098 175.54744525547449 l 3.5592881423715257 0 L 39.68606278744251 176.83885457608085 l -3.5592881423715257 0 L 36.12677464507098 175.54744525547449 M 49.4741051789642 162.3526108927569 l 3.5592881423715257 0 L 53.03339332133573 164.14935429533972 l -3.5592881423715257 0 L 49.4741051789642 162.3526108927569 M 53.92321535692861 163.02638966872544 l 3.5592881423715257 0 L 57.48250349930014 166.61987647389108 l -3.5592881423715257 0 L 53.92321535692861 163.02638966872544 M 62.821435712857415 155.78326782706347 l 3.5592881423715257 0 L 66.38072385522894 160.16282987085907 l -3.5592881423715257 0 L 62.821435712857415 155.78326782706347 M 67.27054589082184 158.53453116226842 l 3.5592881423715257 0 L 70.82983403319336 162.63335204941043 l -3.5592881423715257 0 L 67.27054589082184 158.53453116226842 M 71.71965606878624 159.60134755755195 l 3.5592881423715257 0 L 75.27894421115776 172.7400336889388 l -3.5592881423715257 0 L 71.71965606878624 159.60134755755195 M 93.96520695860828 145.95732734418868 l 3.5592881423715257 0 L 97.5244951009798 146.46266142616508 l -3.5592881423715257 0 L 93.96520695860828 145.95732734418868 M 98.41431713657269 139.10724312184166 l 3.5592881423715257 0 L 101.97360527894422 139.38798427849522 l -3.5592881423715257 0 L 98.41431713657269 139.10724312184166 M 129.55808838232352 128.0460415496912 l 3.5592881423715257 0 L 133.11737652469503 135.28916339135318 l -3.5592881423715257 0 L 129.55808838232352 128.0460415496912 M 138.45630873825232 126.58618753509268 l 3.5592881423715257 0 L 142.01559688062383 127.76530039303762 l -3.5592881423715257 0 L 138.45630873825232 126.58618753509268 M 142.90541891621675 127.31611454239193 l 3.5592881423715257 0 L 146.46470705858826 146.74340258281865 l -3.5592881423715257 0 L 142.90541891621675 127.31611454239193 M 147.35452909418115 145.3958450308815 l 3.5592881423715257 0 L 150.91381723655266 148.82088714205503 l -3.5592881423715257 0 L 147.35452909418115 145.3958450308815 M 156.25274945010997 135.28916339135318 l 3.5592881423715257 0 L 159.8120375924815 135.68220101066817 l -3.5592881423715257 0 L 156.25274945010997 135.28916339135318 M 165.15096980603877 130.7411566535654 l 3.5592881423715257 0 L 168.7102579484103 133.49241998877037 l -3.5592881423715257 0 L 165.15096980603877 130.7411566535654 M 182.9474105178964 104.40763615946099 l 3.5592881423715257 0 L 186.50669866026792 109.06793935991017 l -3.5592881423715257 0 L 182.9474105178964 104.40763615946099 M 187.3965206958608 106.37282425603595 l 3.5592881423715257 0 L 190.95580883823231 115.63728242560362 l -3.5592881423715257 0 L 187.3965206958608 106.37282425603595 M 200.74385122975406 112.82987085906797 l 3.5592881423715257 0 L 204.30313937212557 119.73610331274564 l -3.5592881423715257 0 L 200.74385122975406 112.82987085906797 M 205.19296140771843 122.0381807973049 l 3.5592881423715257 0 L 208.75224955008994 129.39359910162833 l -3.5592881423715257 0 L 205.19296140771843 122.0381807973049 M 209.64207158568283 126.58618753509268 l 3.5592881423715257 0 L 213.20135972805434 134.05390230207752 l -3.5592881423715257 0 L 209.64207158568283 126.58618753509268 M 214.09118176364726 130.68500842223472 l 3.5592881423715257 0 L 217.65046990601877 136.24368332397532 l -3.5592881423715257 0 L 214.09118176364726 130.68500842223472 M 222.98940211957606 125.91240875912409 l 3.5592881423715257 0 L 226.54869026194757 132.08871420550253 l -3.5592881423715257 0 L 222.98940211957606 125.91240875912409 M 227.43851229754048 134.27849522740036 l 3.5592881423715257 0 L 230.997800439912 140.67939359910164 l -3.5592881423715257 0 L 227.43851229754048 134.27849522740036 M 236.33673265346926 129.22515440763618 l 3.5592881423715257 0 L 239.89602079584077 135.6260527793375 l -3.5592881423715257 0 L 236.33673265346926 129.22515440763618 M 240.78584283143368 134.9522740033689 l 3.5592881423715257 0 L 244.3451309738052 144.3851768669287 l -3.5592881423715257 0 L 240.78584283143368 134.9522740033689 M 245.2349530093981 142.98147108366086 l 3.5592881423715257 0 L 248.79424115176963 144.55362156092085 l -3.5592881423715257 0 L 245.2349530093981 142.98147108366086 M 249.68406318736248 147.30488489612577 l 3.5592881423715257 0 L 253.243351329734 152.02133632790566 l -3.5592881423715257 0 L 249.68406318736248 147.30488489612577 M 267.48050389922014 135.68220101066817 l 3.5592881423715257 0 L 271.0397920415917 136.24368332397532 l -3.5592881423715257 0 L 267.48050389922014 135.68220101066817 M 271.92961407718457 139.27568781583383 l 3.5592881423715257 0 L 275.4889022195561 154.0988208871421 l -3.5592881423715257 0 L 271.92961407718457 139.27568781583383 M 280.8278344331133 149.71925884334644 l 3.5592881423715257 0 L 284.38712257548485 150.7299270072993 l -3.5592881423715257 0 L 280.8278344331133 149.71925884334644 M 285.2769446110777 147.58562605277933 l 3.5592881423715257 0 L 288.8362327534492 149.21392476137 l -3.5592881423715257 0 L 285.2769446110777 147.58562605277933 M 289.7260547890421 147.30488489612577 l 3.5592881423715257 0 L 293.28534293141365 151.85289163391357 l -3.5592881423715257 0 L 289.7260547890421 147.30488489612577 M 294.17516496700654 151.12296462661428 l 3.5592881423715257 0 L 297.7344531093781 159.7697922515441 l -3.5592881423715257 0 L 294.17516496700654 151.12296462661428 M 316.42071585682856 148.93318360471648 l 3.5592881423715257 0 L 319.9800039992001 149.04548006737792 l -3.5592881423715257 0 L 316.42071585682856 148.93318360471648 M 329.7680463907218 136.41212801796746 l 3.5592881423715257 0 L 333.32733453309334 142.25154407636163 l -3.5592881423715257 0 L 329.7680463907218 136.41212801796746 M 343.11537692461496 127.54070746771477 l 3.5592881423715257 0 L 346.6746650669865 134.1661987647389 l -3.5592881423715257 0 L 343.11537692461496 127.54070746771477 M 383.1573685262947 84.25042111173498 l 3.5592881423715257 0 L 386.71665666866625 85.9910162829871 l -3.5592881423715257 0 L 383.1573685262947 84.25042111173498 M 387.6064787042591 83.96967995508145 l 3.5592881423715257 0 L 391.1657668466306 87.28242560359351 l -3.5592881423715257 0 L 387.6064787042591 83.96967995508145 M 392.0555888822235 88.68613138686135 l 3.5592881423715257 0 L 395.61487702459505 100.14037057832681 l -3.5592881423715257 0 L 392.0555888822235 88.68613138686135 M 396.5046990601879 103.00393037619318 l 3.5592881423715257 0 L 400.0639872025594 109.85401459854016 l -3.5592881423715257 0 L 396.5046990601879 103.00393037619318 M 405.4029194161167 103.56541268950032 l 3.5592881423715257 0 L 408.9622075584882 104.23919146546885 l -3.5592881423715257 0 L 405.4029194161167 103.56541268950032 M 409.8520295940811 102.49859629421674 l 3.5592881423715257 0 L 413.41131773645265 105.08141493542954 l -3.5592881423715257 0 L 409.8520295940811 102.49859629421674 M 427.64847030593876 82.11678832116792 l 3.5592881423715257 0 L 431.2077584483103 90.14598540145988 l -3.5592881423715257 0 L 427.64847030593876 82.11678832116792 M 436.54669066186756 86.27175743964068 l 3.5592881423715257 0 L 440.1059788042391 97.5014037057833 l -3.5592881423715257 0 L 436.54669066186756 86.27175743964068 M 445.44491101779636 85.87871982032568 l 3.5592881423715257 0 L 449.0041991601679 88.01235261089278 l -3.5592881423715257 0 L 445.44491101779636 85.87871982032568 M 449.8940211957608 89.92139247613704 l 3.5592881423715257 0 L 453.4533093381323 90.31443009545204 l -3.5592881423715257 0 L 449.8940211957608 89.92139247613704 M 454.34313137372516 89.69679955081418 l 3.5592881423715257 0 L 457.9024195160967 95.31162268388549 l -3.5592881423715257 0 L 454.34313137372516 89.69679955081418 M 463.241351729654 80.99382369455364 l 3.5592881423715257 0 L 466.80063987202556 88.51768669286922 l -3.5592881423715257 0 L 463.241351729654 80.99382369455364 M 472.13957208558276 96.15384615384619 l 3.5592881423715257 0 L 475.6988602279543 105.69904548006738 l -3.5592881423715257 0 L 472.13957208558276 96.15384615384619 M 476.5886822635472 104.12689500280746 l 3.5592881423715257 0 L 480.1479704059187 110.75238629983158 l -3.5592881423715257 0 L 476.5886822635472 104.12689500280746 M 485.48690261947604 104.80067377877599 l 3.5592881423715257 0 L 489.0461907618476 110.86468276249299 l -3.5592881423715257 0 L 485.48690261947604 104.80067377877599 M 489.93601279744047 62.63335204941046 l 3.5592881423715257 0 L 493.495300939812 68.47276810780463 l -3.5592881423715257 0 L 489.93601279744047 62.63335204941046 M 498.8342331533692 57.523862998315565 l 3.5592881423715257 0 L 502.39352129574075 66.22683885457613 l -3.5592881423715257 0 L 498.8342331533692 57.523862998315565 M 507.73245350929807 59.15216170690624 l 3.5592881423715257 0 L 511.2917416516696 62.24031443009548 l -3.5592881423715257 0 L 507.73245350929807 59.15216170690624 M 521.0797840431914 50.39303761931504 l 3.5592881423715257 0 L 524.6390721855629 54.604154969118525 l -3.5592881423715257 0 L 521.0797840431914 50.39303761931504 M 529.9780043991201 46.91184727681079 l 3.5592881423715257 0 L 533.5372925414916 49.550814149354295 l -3.5592881423715257 0 L 529.9780043991201 46.91184727681079 M 538.876224755049 32.42560359348684 l 3.5592881423715257 0 L 542.4355128974205 34.72768107804603 l -3.5592881423715257 0 L 538.876224755049 32.42560359348684 M 556.6726654669066 20.129140932060693 l 3.5592881423715257 0 L 560.2319536092781 26.305446378439086 l -3.5592881423715257 0 L 556.6726654669066 20.129140932060693 M 565.5708858228353 13.054463784390805 l 3.5592881423715257 0 L 569.1301739652068 19.230769230769283 l -3.5592881423715257 0 L 565.5708858228353 13.054463784390805 M 570.0199960007999 17.321729365525016 l 3.5592881423715257 0 L 573.5792841431714 22.543514879281304 l -3.5592881423715257 0 L 570.0199960007999 17.321729365525016 M 574.4691061787643 22.094329028635627 l 3.5592881423715257 0 L 578.0283943211358 24.34025828186418 l -3.5592881423715257 0 L 574.4691061787643 22.094329028635627 M 578.9182163567286 21.36440202133636 l 3.5592881423715257 0 L 582.4775044991002 27.03537338573841 l -3.5592881423715257 0 L 578.9182163567286 21.36440202133636 M 596.7146570685862 7.8326782706345455 l 3.5592881423715257 0 L 600.2739452109578 13.672094329028653 l -3.5592881423715257 0 L 596.7146570685862 7.8326782706345455 M 601.1637672465507 12.324536777091566 l 3.5592881423715257 0 L 604.7230553889223 19.511510387422845 l -3.5592881423715257 0 L 601.1637672465507 12.324536777091566 M 610.0619876024795 4.351487928130297 l 3.5592881423715257 0 L 613.621275744851 17.827063447501473 l -3.5592881423715257 0 L 610.0619876024795 4.351487928130297 M 618.9602079584083 11.145423919146538 l 3.5592881423715257 0 L 622.5194961007799 24.957888826502 l -3.5592881423715257 0 L 618.9602079584083 11.145423919146538 M 623.4093181363727 26.866928691746267 l 3.5592881423715257 0 L 626.9686062787442 31.190342504211145 l -3.5592881423715257 0 L 623.4093181363727 26.866928691746267 M 636.7566486702659 23.048848961257733 l 3.5592881423715257 0 L 640.3159368126375 28.270634475014106 l -3.5592881423715257 0 L 636.7566486702659 23.048848961257733 M 641.2057588482303 29.56204379562044 l 3.5592881423715257 0 L 644.7650469906018 35.40145985401463 l -3.5592881423715257 0 L 641.2057588482303 29.56204379562044 M 645.6548690261947 32.2571588994947 l 3.5592881423715257 0 L 649.2141571685662 33.8854576080854 l -3.5592881423715257 0 L 645.6548690261947 32.2571588994947 M 650.1039792041591 34.16619876473894 l 3.5592881423715257 0 L 653.6632673465307 51.516002245929315 l -3.5592881423715257 0 L 650.1039792041591 34.16619876473894 M 659.002199560088 47.922515440763675 l 3.5592881423715257 0 L 662.5614877024595 72.40314430095454 l -3.5592881423715257 0 L 659.002199560088 47.922515440763675 M 667.9004199160167 67.01291409320606 l 3.5592881423715257 0 L 671.4597080583883 74.48062886019093 l -3.5592881423715257 0 L 667.9004199160167 67.01291409320606 M 672.3495300939811 70.157215047726 l 3.5592881423715257 0 L 675.9088182363527 73.1892195395845 l -3.5592881423715257 0 L 672.3495300939811 70.157215047726 M 681.24775044991 56.513194834362736 l 3.5592881423715257 0 L 684.8070385922815 59.26445816956769 l -3.5592881423715257 0 L 681.24775044991 56.513194834362736 M 685.6968606278745 60.21897810218982 l 3.5592881423715257 0 L 689.256148770246 77.40033688938799 l -3.5592881423715257 0 L 685.6968606278745 60.21897810218982 M 690.1459708058388 74.87366647950593 l 3.5592881423715257 0 L 693.7052589482104 92.78495227400339 l -3.5592881423715257 0 L 690.1459708058388 74.87366647950593 M 707.9424115176964 57.24312184166203 l 3.5592881423715257 0 L 711.501699660068 79.25322852330157 l -3.5592881423715257 0 L 707.9424115176964 57.24312184166203 M 716.8406318736253 74.0314430095452 l 3.5592881423715257 0 L 720.3999200159968 80.76923076923079 l -3.5592881423715257 0 L 716.8406318736253 74.0314430095452 M 721.2897420515897 78.52330151600226 l 3.5592881423715257 0 L 724.8490301939612 79.64626614261651 l -3.5592881423715257 0 L 721.2897420515897 78.52330151600226 M 725.738852229554 75.71588994946661 l 3.5592881423715257 0 L 729.2981403719256 76.10892756878161 l -3.5592881423715257 0 L 725.738852229554 75.71588994946661 M 730.1879624075184 78.46715328467158 l 3.5592881423715257 0 L 733.7472505498899 80.48848961257724 l -3.5592881423715257 0 L 730.1879624075184 78.46715328467158 M 743.5352929414117 55.16563728242559 l 3.5592881423715257 0 L 747.0945810837833 66.90061763054467 l -3.5592881423715257 0 L 743.5352929414117 55.16563728242559 M 747.9844031193761 54.323413812464935 l 3.5592881423715257 0 L 751.5436912617477 69.65188096574963 l -3.5592881423715257 0 L 747.9844031193761 54.323413812464935 M 752.4335132973405 74.70522178551377 l 3.5592881423715257 0 L 755.992801439712 87.39472206625494 l -3.5592881423715257 0 L 752.4335132973405 74.70522178551377 M 756.8826234753049 85.48568220101072 l 3.5592881423715257 0 L 760.4419116176764 96.20999438517688 l -3.5592881423715257 0 L 756.8826234753049 85.48568220101072 M 774.6790641871626 67.23750701852896 l 3.5592881423715257 0 L 778.2383523295341 71.95395845030882 l -3.5592881423715257 0 L 774.6790641871626 67.23750701852896 M 783.5772845430913 69.03425042111178 l 3.5592881423715257 0 L 787.1365726854629 82.79056709713646 l -3.5592881423715257 0 L 783.5772845430913 69.03425042111178 M 788.0263947210557 81.44300954519935 l 3.5592881423715257 0 L 791.5856828634272 89.19146546883773 l -3.5592881423715257 0 L 788.0263947210557 81.44300954519935 M 792.4755048990202 90.08983717012917 l 3.5592881423715257 0 L 796.0347930413917 92.72880404267269 l -3.5592881423715257 0 L 792.4755048990202 90.08983717012917 M 810.2719456108778 77.17574396406515 l 3.5592881423715257 0 L 813.8312337532493 78.86019090398658 l -3.5592881423715257 0 L 810.2719456108778 77.17574396406515 M 814.7210557888421 78.69174620999442 l 3.5592881423715257 0 L 818.2803439312137 86.21560920830996 l -3.5592881423715257 0 L 814.7210557888421 78.69174620999442 M 819.1701659668066 84.02582818641213 l 3.5592881423715257 0 L 822.7294541091782 85.6541268950028 l -3.5592881423715257 0 L 819.1701659668066 84.02582818641213 M 828.0683863227354 77.3441886580573 l 3.5592881423715257 0 L 831.6276744651069 82.6221224031443 l -3.5592881423715257 0 L 828.0683863227354 77.3441886580573 M 836.9666066786642 69.25884334643462 l 3.5592881423715257 0 L 840.5258948210358 71.61706906232453 l -3.5592881423715257 0 L 836.9666066786642 69.25884334643462 M 854.7630473905218 52.97585626052782 l 3.5592881423715257 0 L 858.3223355328934 53.032004491858544 l -3.5592881423715257 0 L 854.7630473905218 52.97585626052782 M 859.2121575684863 52.358225715889944 l 3.5592881423715257 0 L 862.7714457108578 56.007860752386364 l -3.5592881423715257 0 L 859.2121575684863 52.358225715889944 M 863.6612677464507 56.40089837170132 l 3.5592881423715257 0 L 867.2205558888222 57.24312184166203 l -3.5592881423715257 0 L 863.6612677464507 56.40089837170132 M 877.0085982803438 53.98652442448068 l 3.5592881423715257 0 L 880.5678864227153 56.62549129702418 l -3.5592881423715257 0 L 877.0085982803438 53.98652442448068 M 881.4577084583083 55.614823133071354 l 3.5592881423715257 0 L 885.0169966006798 60.499719258843356 l -3.5592881423715257 0 L 881.4577084583083 55.614823133071354"></path><path class="candle body equal" d="M 365.36092781443705 99.41044357102753 l 3.5592881423715257 0 M 654.5530893821235 47.08029197080293 l 3.5592881423715257 0"></path><path class="candle wick up" d="M 2.3135372925414917 193.8517686692869 L 2.3135372925414917 194.9747332959012 M 2.3135372925414917 195.98540145985405 L 2.3135372925414917 196.15384615384613 M 6.7626474705058985 183.29590117911286 L 6.7626474705058985 183.7450870297586 M 6.7626474705058985 192.4480628860191 L 6.7626474705058985 192.84110050533408 M 11.211757648470305 175.94048287478947 L 11.211757648470305 179.3093767546322 M 11.211757648470305 181.77989893318363 L 11.211757648470305 183.35204941044358 M 20.109978004399117 182.06064008983716 L 20.109978004399117 183.7450870297586 M 20.109978004399117 187.05783267827064 L 20.109978004399117 187.50701852891632 M 24.559088182363524 176.83885457608085 L 24.559088182363524 179.6462661426165 M 24.559088182363524 181.83604716451433 L 24.559088182363524 182.34138124649076 M 33.45730853829234 174.7052217855138 L 33.45730853829234 176.33352049410445 M 33.45730853829234 176.50196518809656 L 33.45730853829234 178.35485682201013 M 42.355528894221145 171.336327905671 L 42.355528894221145 171.89781021897812 M 42.355528894221145 176.78270634475015 L 42.355528894221145 176.89500280741157 M 46.80463907218556 160.94890510948906 L 46.80463907218556 164.65468837731612 M 46.80463907218556 169.48343627175743 L 46.80463907218556 173.35766423357666 M 60.15196960607877 158.2537900056148 L 60.15196960607877 158.53453116226842 M 60.15196960607877 167.79898933183605 L 60.15196960607877 169.37113980909604 M 77.9484103179364 156.2886019090399 L 77.9484103179364 158.36608646827625 M 77.9484103179364 172.79618192026953 L 77.9484103179364 173.1892195395845 M 82.3975204959008 156.12015721504775 L 82.3975204959008 157.46771476698487 M 82.3975204959008 159.65749578888264 L 82.3975204959008 162.12801796743406 M 86.84663067386522 152.8635597978664 L 86.84663067386522 153.25659741718138 M 86.84663067386522 155.8955642897249 L 86.84663067386522 157.46771476698487 M 91.29574085182962 144.16058394160586 L 91.29574085182962 144.77821448624368 M 91.29574085182962 151.34755755193711 L 91.29574085182962 154.60415496911847 M 104.64307138572283 133.2678270634475 L 104.64307138572283 133.71701291409323 M 104.64307138572283 135.00842223469965 L 104.64307138572283 139.33183604716453 M 109.09218156368725 127.31611454239193 L 109.09218156368725 128.4952274003369 M 109.09218156368725 130.62886019090402 L 109.09218156368725 133.49241998877037 M 113.54129174165166 123.49803481190344 L 113.54129174165166 123.72262773722629 M 113.54129174165166 129.05670971364404 L 113.54129174165166 131.47108366086468 M 117.99040191961605 121.70129140932062 L 117.99040191961605 129.39359910162833 M 117.99040191961605 129.89893318360473 L 117.99040191961605 131.807973048849 M 122.43951209758048 124.90174059517126 L 122.43951209758048 128.32678270634477 M 122.43951209758048 130.85345311622686 L 122.43951209758048 133.7731611454239 M 126.88862227554488 124.50870297585627 L 126.88862227554488 129.11285794497473 M 126.88862227554488 129.95508141493542 L 126.88862227554488 130.96574957888828 M 135.7868426314737 124.17181358787201 L 135.7868426314737 124.84559236384057 M 135.7868426314737 131.9764177428411 L 135.7868426314737 133.09938236945538 M 153.58328334333132 132.48175182481754 L 153.58328334333132 136.01909039865248 M 153.58328334333132 142.70072992700733 L 153.58328334333132 142.86917462099944 M 162.48150369926014 132.7624929814711 L 162.48150369926014 133.43627175743967 M 162.48150369926014 140.17405951712522 L 162.48150369926014 142.41998877035377 M 171.37972405518897 123.72262773722629 L 171.37972405518897 124.28411005053343 M 171.37972405518897 130.46041549691188 L 171.37972405518897 131.24649073554184 M 175.82883423315337 118.22010106681643 L 175.82883423315337 118.27624929814712 M 175.82883423315337 124.39640651319486 L 175.82883423315337 125.35092644581695 M 180.27794441111777 103.62156092083102 L 180.27794441111777 106.9904548006738 M 180.27794441111777 107.21504772599666 L 180.27794441111777 110.471645143178 M 193.625274945011 118.05165637282428 L 193.625274945011 120.01684446939925 M 193.625274945011 120.85906793935993 L 193.625274945011 124.34025828186412 M 198.0743851229754 114.73891072431218 L 198.0743851229754 116.98483997754073 M 198.0743851229754 117.32172936552499 L 198.0743851229754 121.75743964065133 M 220.31993601279743 119.45536215609211 L 220.31993601279743 129.56204379562044 M 220.31993601279743 146.63110612015726 L 220.31993601279743 150.3368893879843 M 233.66726654669066 129.6743402582819 L 233.66726654669066 130.1235261089276 M 233.66726654669066 143.0937675463223 L 233.66726654669066 144.6659180235823 M 255.91281743651268 145.45199326221226 L 255.91281743651268 149.77540707467716 M 255.91281743651268 153.14430095451996 L 255.91281743651268 154.0988208871421 M 260.3619276144771 137.75968556990455 L 260.3619276144771 137.9281302638967 M 260.3619276144771 151.85289163391357 L 260.3619276144771 152.80741156653565 M 264.81103779244154 133.09938236945538 L 264.81103779244154 136.35597978663674 M 264.81103779244154 137.9842784952274 L 264.81103779244154 141.7462099943852 M 278.1583683263347 147.52947782144864 L 278.1583683263347 151.12296462661428 M 278.1583683263347 151.68444693992143 L 278.1583683263347 154.71645143177992 M 300.40391921615674 152.18978102189783 L 300.40391921615674 153.76193149915778 M 300.40391921615674 160.66816395283553 L 300.40391921615674 166.90061763054467 M 304.8530293941211 149.38236945536215 L 304.8530293941211 150.393037619315 M 304.8530293941211 153.31274564851208 L 304.8530293941211 155.78326782706347 M 309.30213957208554 146.35036496350364 L 309.30213957208554 147.47332959011794 M 309.30213957208554 148.93318360471648 L 309.30213957208554 150.3368893879843 M 313.75124975004996 144.49747332959012 L 313.75124975004996 147.19258843346435 M 313.75124975004996 148.0909601347558 L 313.75124975004996 151.68444693992143 M 322.64947010597876 137.5912408759124 L 322.64947010597876 138.43346434587312 M 322.64947010597876 150.56148231330712 L 322.64947010597876 151.68444693992143 M 327.0985802839432 137.9842784952274 L 327.0985802839432 140.00561482313307 M 327.0985802839432 141.07243121841663 L 327.0985802839432 142.6445816956766 M 335.996800639872 136.46827624929819 L 335.996800639872 137.19820325659742 M 335.996800639872 141.57776530039305 L 335.996800639872 143.37450870297585 M 340.44591081783636 126.3615946097698 L 340.44591081783636 129.33745087029757 M 340.44591081783636 138.43346434587312 L 340.44591081783636 138.88265019651882 M 349.34413117376516 119.06232453677711 L 349.34413117376516 120.40988208871423 M 349.34413117376516 124.90174059517126 L 349.34413117376516 126.97922515440767 M 353.7932413517296 111.03312745648513 L 353.7932413517296 112.04379562043798 M 353.7932413517296 121.64514317798991 L 353.7932413517296 123.16114542391914 M 358.242351529694 105.41830432341384 L 358.242351529694 109.29253228523302 M 358.242351529694 112.32453677709152 L 358.242351529694 114.34587310499722 M 362.6914617076584 101.60022459292534 L 362.6914617076584 103.39696799550816 M 362.6914617076584 104.01459854014601 L 362.6914617076584 106.87815833801237 M 371.58968206358725 101.54407636159463 L 371.58968206358725 102.33015160022462 M 371.58968206358725 106.31667602470523 L 371.58968206358725 108.50645704660303 M 376.0387922415516 101.76866928691749 L 376.0387922415516 101.93711398090963 M 376.0387922415516 103.11622683885462 L 376.0387922415516 106.9343065693431 M 380.48790241951605 83.96967995508145 L 380.48790241951605 87.05783267827063 M 380.48790241951605 99.80348119034252 L 380.48790241951605 100.08422234699607 M 402.7334533093381 103.39696799550816 L 402.7334533093381 104.57608085345315 M 402.7334533093381 107.55193711398094 L 402.7334533093381 108.73104997192591 M 416.0807838432313 89.92139247613704 L 416.0807838432313 90.25828186412129 M 416.0807838432313 105.86749017405953 L 416.0807838432313 107.94497473329594 M 420.5298940211957 82.67827063447506 L 420.5298940211957 86.21560920830996 M 420.5298940211957 87.45087029758562 L 420.5298940211957 90.14598540145988 M 424.9790041991601 83.46434587310503 L 424.9790041991601 84.47501403705786 M 424.9790041991601 88.01235261089278 L 424.9790041991601 90.08983717012917 M 433.8772245550889 84.0819764177429 L 433.8772245550889 86.10331274564855 M 433.8772245550889 90.65131948343628 L 433.8772245550889 91.04435710275128 M 442.77544491101776 87.00168444693995 L 442.77544491101776 87.22627737226279 M 442.77544491101776 94.41325098259405 L 442.77544491101776 96.43458731049974 M 460.57188562287536 82.50982594048291 L 460.57188562287536 82.90286355979791 M 460.57188562287536 93.62717574396409 L 460.57188562287536 94.18865805727121 M 469.4701059788042 93.17798989331838 L 469.4701059788042 93.45873104997193 M 469.4701059788042 94.9185850645705 L 469.4701059788042 98.73666479505899 M 482.8174365126974 101.0387422796182 L 482.8174365126974 101.8248175182482 M 482.8174365126974 108.11341942728804 L 482.8174365126974 108.22571588994948 M 496.16476704659067 55.614823133071354 L 496.16476704659067 60.106681639528375 M 496.16476704659067 71.89781021897815 L 496.16476704659067 73.5822571588995 M 505.0629874025194 56.906232453677745 L 505.0629874025194 59.096013475575546 M 505.0629874025194 63.02638966872547 L 505.0629874025194 64.31779898933186 M 513.9612077584483 58.9275687815834 L 513.9612077584483 62.408759124087624 M 513.9612077584483 66.33913531723752 L 513.9612077584483 66.33913531723752 M 518.4103179364126 48.87703537338581 L 518.4103179364126 50.28074115665362 M 518.4103179364126 61.79112857944975 L 518.4103179364126 62.07186973610334 M 527.3085382923415 46.46266142616511 L 527.3085382923415 47.30488489612583 M 527.3085382923415 53.48119034250422 L 527.3085382923415 55.727119595732745 M 536.2067586482702 33.380123526108974 L 536.2067586482702 33.380123526108974 M 536.2067586482702 51.06681639528355 L 536.2067586482702 51.79674340258288 M 545.1049790041991 32.201010668163946 L 545.1049790041991 33.54856822010112 M 545.1049790041991 35.569904548006775 L 545.1049790041991 40.454800673778834 M 549.5540891821635 23.55418304323419 L 549.5540891821635 29.281302638966878 M 549.5540891821635 34.95227400336893 L 549.5540891821635 35.23301516002249 M 554.003199360128 17.77091521617072 L 554.003199360128 20.46603032004498 M 554.003199360128 31.134194272880393 L 554.003199360128 42.363840539023016 M 562.9014197160567 10.30320044918588 L 562.9014197160567 14.008983717012939 M 562.9014197160567 25.463222908478457 L 562.9014197160567 26.58618753509262 M 585.1469706058788 29.33745087029763 L 585.1469706058788 32.93093767546327 M 585.1469706058788 35.457608085345385 L 585.1469706058788 37.984278495227414 M 589.5960807838433 24.564851207186962 L 589.5960807838433 25.12633352049417 M 589.5960807838433 25.912408759124133 L 589.5960807838433 31.75182481751827 M 594.0451909618076 7.327344188658117 L 594.0451909618076 9.573273441886641 M 594.0451909618076 20.129140932060693 L 594.0451909618076 20.522178551375646 M 607.3925214957009 6.316676024705231 L 607.3925214957009 6.9904548006738025 M 607.3925214957009 14.06513194834369 L 607.3925214957009 15.524985962942168 M 616.2907418516296 10.808534531162337 L 616.2907418516296 13.447501403705843 M 616.2907418516296 19.17462099943853 L 616.2907418516296 24.003368893879866 M 629.638072385523 24.2841100505334 L 629.638072385523 25.463222908478457 M 629.638072385523 28.607523862998306 L 629.638072385523 37.36664795058954 M 634.0871825634873 20.634475014037122 L 634.0871825634873 22.936552498596342 M 634.0871825634873 25.350926445816953 L 634.0871825634873 27.93374508702979 M 665.2309538092381 63.86861313868616 L 665.2309538092381 69.09039865244247 M 665.2309538092381 71.67321729365528 L 665.2309538092381 85.87871982032568 M 678.5782843431314 59.601347557551975 L 678.5782843431314 59.82594048287481 M 678.5782843431314 71.95395845030882 L 678.5782843431314 73.1892195395845 M 696.374725054989 85.76642335766425 L 696.374725054989 91.66198764738911 M 696.374725054989 97.55755193711401 L 696.374725054989 100.14037057832681 M 700.8238352329533 81.77989893318363 L 700.8238352329533 84.69960696238073 M 700.8238352329533 87.56316676024707 L 700.8238352329533 90.42672655811343 M 705.2729454109178 60.72431218416622 L 705.2729454109178 61.00505334081981 M 705.2729454109178 76.61426165075802 L 705.2729454109178 79.08478382930942 M 714.1711657668466 72.79618192026953 L 714.1711657668466 82.79056709713646 M 714.1711657668466 88.01235261089278 L 714.1711657668466 89.64065131948344 M 736.4167166566687 67.57439640651322 L 736.4167166566687 67.57439640651322 M 736.4167166566687 77.56878158338014 L 736.4167166566687 79.30937675463225 M 740.865826834633 55.22178551375637 L 740.865826834633 57.523862998315565 M 740.865826834633 59.6574957888827 L 740.865826834633 62.07186973610334 M 763.111377724455 84.19427288040428 L 763.111377724455 84.92419988770357 M 763.111377724455 96.49073554183043 L 763.111377724455 97.89444132509826 M 767.5604879024195 75.37900056148233 L 767.5604879024195 75.77203818079732 M 767.5604879024195 88.12464907355422 L 767.5604879024195 90.48287478944417 M 772.0095980803839 61.73498034811905 L 772.0095980803839 68.07973048848964 M 772.0095980803839 72.12240314430099 L 772.0095980803839 73.35766423357666 M 780.9078184363127 66.95676586187537 L 780.9078184363127 67.68669286917466 M 780.9078184363127 76.38966872543516 L 780.9078184363127 79.14093206064013 M 798.7042591481703 87.73161145423923 L 798.7042591481703 90.03368893879843 M 798.7042591481703 92.22346996069626 L 798.7042591481703 94.86243683323976 M 803.1533693261348 75.09825940482877 L 803.1533693261348 75.49129702414376 M 803.1533693261348 85.87871982032568 L 803.1533693261348 85.87871982032568 M 807.6024795040992 69.53958450308818 L 807.6024795040992 75.49129702414376 M 807.6024795040992 76.44581695676591 L 807.6024795040992 77.2880404267266 M 825.3989202159568 77.00729927007299 L 825.3989202159568 78.97248736664797 M 825.3989202159568 86.3840539023021 L 825.3989202159568 88.1807973048849 M 834.2971405718856 71.72936552498598 L 834.2971405718856 71.78551375631667 M 834.2971405718856 82.6221224031443 L 834.2971405718856 84.36271757439641 M 843.1953609278145 66.39528354856822 L 843.1953609278145 66.95676586187537 M 843.1953609278145 72.23469960696242 L 843.1953609278145 73.69455362156094 M 847.6444711057787 54.82874789444136 L 847.6444711057787 54.997192588433506 M 847.6444711057787 65.44076361594614 L 847.6444711057787 65.72150477259967 M 852.0935812837432 51.29140932060642 L 852.0935812837432 54.82874789444136 M 852.0935812837432 55.50252667040991 L 852.0935812837432 59.82594048287481 M 869.8900219956008 55.334081976417764 L 869.8900219956008 58.422234699607 M 869.8900219956008 59.82594048287481 L 869.8900219956008 61.510387422796185 M 874.3391321735652 54.37956204379563 L 874.3391321735652 55.78326782706344 M 874.3391321735652 60.78046041549692 L 874.3391321735652 62.914093206064024 M 887.6864627074584 55.78326782706344 L 887.6864627074584 58.36608646827625 M 887.6864627074584 61.06120157215051 L 887.6864627074584 64.486243683324" style="stroke-width: 0.8898220355928814px;"></path><path class="candle wick down" d="M 15.66086782643471 180.0954519932622 L 15.66086782643471 183.0151600224593 M 15.66086782643471 188.85457608085346 L 15.66086782643471 190.08983717012913 M 29.00819836032793 174.14373947220665 L 29.00819836032793 175.49129702414373 M 29.00819836032793 179.5901179112858 L 29.00819836032793 180.8815272318922 M 37.906418716256745 174.64907355418305 L 37.906418716256745 175.54744525547449 M 37.906418716256745 176.83885457608085 L 37.906418716256745 178.74789444132512 M 51.253749250149966 159.93823694553623 L 51.253749250149966 162.3526108927569 M 51.253749250149966 164.14935429533972 L 51.253749250149966 166.05839416058393 M 55.70285942811437 162.91409320606402 L 55.70285942811437 163.02638966872544 M 55.70285942811437 166.61987647389108 L 55.70285942811437 168.6973610331275 M 64.60107978404318 155.27793374508707 L 64.60107978404318 155.78326782706347 M 64.60107978404318 160.16282987085907 L 64.60107978404318 160.72431218416622 M 69.0501899620076 158.30993823694556 L 69.0501899620076 158.53453116226842 M 69.0501899620076 162.63335204941043 L 69.0501899620076 164.76698483997757 M 73.499300139972 159.09601347557555 L 73.499300139972 159.60134755755195 M 73.499300139972 172.7400336889388 L 73.499300139972 173.1892195395845 M 95.74485102979403 144.44132509825943 L 95.74485102979403 145.95732734418868 M 95.74485102979403 146.46266142616508 L 95.74485102979403 151.51600224592926 M 100.19396120775845 132.59404828747898 L 100.19396120775845 139.10724312184166 M 100.19396120775845 139.38798427849522 L 100.19396120775845 141.01628298708593 M 131.3377324535093 126.64233576642337 L 131.3377324535093 128.0460415496912 M 131.3377324535093 135.28916339135318 L 131.3377324535093 135.96294216732173 M 140.2359528094381 123.44188658057274 L 140.2359528094381 126.58618753509268 M 140.2359528094381 127.76530039303762 L 140.2359528094381 128.4390791690062 M 144.68506298740252 127.31611454239193 L 144.68506298740252 127.31611454239193 M 144.68506298740252 146.74340258281865 L 144.68506298740252 147.08029197080293 M 149.13417316536692 142.81302638966872 L 149.13417316536692 145.3958450308815 M 149.13417316536692 148.82088714205503 L 149.13417316536692 157.29927007299273 M 158.03239352129575 131.414935429534 L 158.03239352129575 135.28916339135318 M 158.03239352129575 135.68220101066817 L 158.03239352129575 137.47894441325099 M 166.93061387722454 125.0701852891634 L 166.93061387722454 130.7411566535654 M 166.93061387722454 133.49241998877037 L 166.93061387722454 135.28916339135318 M 184.72705458908217 103.67770915216171 L 184.72705458908217 104.40763615946099 M 184.72705458908217 109.06793935991017 L 184.72705458908217 110.97697922515444 M 189.17616476704657 103.9584503088153 L 189.17616476704657 106.37282425603595 M 189.17616476704657 115.63728242560362 L 189.17616476704657 118.33239752947782 M 202.52349530093983 112.49298147108367 L 202.52349530093983 112.82987085906797 M 202.52349530093983 119.73610331274564 L 202.52349530093983 120.12914093206064 M 206.9726054789042 121.13980909601348 L 206.9726054789042 122.0381807973049 M 206.9726054789042 129.39359910162833 L 206.9726054789042 132.87478944413252 M 211.4217156568686 126.24929814710839 L 211.4217156568686 126.58618753509268 M 211.4217156568686 134.05390230207752 L 211.4217156568686 134.8961257720382 M 215.87082583483303 129.50589556428974 L 215.87082583483303 130.68500842223472 M 215.87082583483303 136.24368332397532 L 215.87082583483303 137.70353733857385 M 224.76904619076183 118.95002807411566 L 224.76904619076183 125.91240875912409 M 224.76904619076183 132.08871420550253 L 224.76904619076183 132.2571588994947 M 229.21815636872626 132.08871420550253 L 229.21815636872626 134.27849522740036 M 229.21815636872626 140.67939359910164 L 229.21815636872626 141.8023582257159 M 238.11637672465503 128.1583380123526 L 238.11637672465503 129.22515440763618 M 238.11637672465503 135.6260527793375 L 238.11637672465503 137.9281302638967 M 242.56548690261945 131.414935429534 L 242.56548690261945 134.9522740033689 M 242.56548690261945 144.3851768669287 L 242.56548690261945 145.84503088152726 M 247.01459708058388 138.26501965188098 L 247.01459708058388 142.98147108366086 M 247.01459708058388 144.55362156092085 L 247.01459708058388 146.1257720381808 M 251.46370725854825 144.55362156092085 L 251.46370725854825 147.30488489612577 M 251.46370725854825 152.02133632790566 L 251.46370725854825 154.66030320044922 M 269.2601479704059 133.6047164514318 L 269.2601479704059 135.68220101066817 M 269.2601479704059 136.24368332397532 L 269.2601479704059 137.9281302638967 M 273.70925814837034 137.19820325659742 L 273.70925814837034 139.27568781583383 M 273.70925814837034 154.0988208871421 L 273.70925814837034 154.2672655811342 M 282.6074785042991 144.44132509825943 L 282.6074785042991 149.71925884334644 M 282.6074785042991 150.7299270072993 L 282.6074785042991 151.4037057832678 M 287.05658868226345 144.94665918023583 L 287.05658868226345 147.58562605277933 M 287.05658868226345 149.21392476137 L 287.05658868226345 149.32622122403146 M 291.5056988602279 146.01347557551938 L 291.5056988602279 147.30488489612577 M 291.5056988602279 151.85289163391357 L 291.5056988602279 153.3688938798428 M 295.9548090381923 149.4946659180236 L 295.9548090381923 151.12296462661428 M 295.9548090381923 159.7697922515441 L 295.9548090381923 164.14935429533972 M 318.20035992801434 146.40651319483436 L 318.20035992801434 148.93318360471648 M 318.20035992801434 149.04548006737792 L 318.20035992801434 151.51600224592926 M 331.54769046190756 134.1100505334082 L 331.54769046190756 136.41212801796746 M 331.54769046190756 142.25154407636163 L 331.54769046190756 143.54295339696802 M 344.89502099580073 126.3615946097698 L 344.89502099580073 127.54070746771477 M 344.89502099580073 134.1661987647389 L 344.89502099580073 136.24368332397532 M 384.9370125974805 82.50982594048291 L 384.9370125974805 84.25042111173498 M 384.9370125974805 85.9910162829871 L 384.9370125974805 91.88658057271199 M 389.38612277544485 83.63279056709713 L 389.38612277544485 83.96967995508145 M 389.38612277544485 87.28242560359351 L 389.38612277544485 89.30376193149921 M 393.8352329534093 87.56316676024707 L 393.8352329534093 88.68613138686135 M 393.8352329534093 100.14037057832681 L 393.8352329534093 101.20718697361035 M 398.28434313137365 101.60022459292534 L 398.28434313137365 103.00393037619318 M 398.28434313137365 109.85401459854016 L 398.28434313137365 111.42616507580013 M 407.18256348730245 101.37563166760249 L 407.18256348730245 103.56541268950032 M 407.18256348730245 104.23919146546885 L 407.18256348730245 107.15889949466595 M 411.6316736652669 98.96125772038185 L 411.6316736652669 102.49859629421674 M 411.6316736652669 105.08141493542954 L 411.6316736652669 105.24985962942168 M 429.42811437712453 80.37619314991579 L 429.42811437712453 82.11678832116792 M 429.42811437712453 90.14598540145988 L 429.42811437712453 93.34643458731054 M 438.32633473305333 84.36271757439641 L 438.32633473305333 86.27175743964068 M 438.32633473305333 97.5014037057833 L 438.32633473305333 100.47725996631107 M 447.22455508898213 82.56597417181362 L 447.22455508898213 85.87871982032568 M 447.22455508898213 88.01235261089278 L 447.22455508898213 89.86524424480629 M 451.67366526694656 85.6541268950028 L 451.67366526694656 89.92139247613704 M 451.67366526694656 90.31443009545204 L 451.67366526694656 92.3357664233577 M 456.1227754449109 86.77709152161708 L 456.1227754449109 89.69679955081418 M 456.1227754449109 95.31162268388549 L 456.1227754449109 96.60303200449188 M 465.0209958008398 78.41100505334082 L 465.0209958008398 80.99382369455364 M 465.0209958008398 88.51768669286922 L 465.0209958008398 90.81976417742843 M 473.9192161567685 94.63784390791692 L 473.9192161567685 96.15384615384619 M 473.9192161567685 105.69904548006738 L 473.9192161567685 105.97978663672097 M 478.36832633473296 102.94778214486246 L 478.36832633473296 104.12689500280746 M 478.36832633473296 110.75238629983158 L 478.36832633473296 120.29758562605278 M 487.2665466906618 102.89163391353172 L 487.2665466906618 104.80067377877599 M 487.2665466906618 110.86468276249299 L 487.2665466906618 112.77372262773726 M 491.71565686862624 60.499719258843356 L 491.71565686862624 62.63335204941046 M 491.71565686862624 68.47276810780463 L 491.71565686862624 71.95395845030882 M 500.613877224555 53.36889387984277 L 500.613877224555 57.523862998315565 M 500.613877224555 66.22683885457613 L 500.613877224555 70.6064008983717 M 509.51209758048384 56.793935991016326 L 509.51209758048384 59.15216170690624 M 509.51209758048384 62.24031443009548 L 509.51209758048384 67.40595171252107 M 522.8594281143771 49.326221224031485 L 522.8594281143771 50.39303761931504 M 522.8594281143771 54.604154969118525 L 522.8594281143771 55.0533408197642 M 531.7576484703059 46.1257720381808 L 531.7576484703059 46.91184727681079 M 531.7576484703059 49.550814149354295 L 531.7576484703059 51.79674340258288 M 540.6558688262347 31.976417742841136 L 540.6558688262347 32.42560359348684 M 540.6558688262347 34.72768107804603 L 540.6558688262347 36.80516563728247 M 558.4523095380923 18.613138686131464 L 558.4523095380923 20.129140932060693 M 558.4523095380923 26.305446378439086 L 558.4523095380923 27.091521617069077 M 567.3505298940211 12.773722627737271 L 567.3505298940211 13.054463784390805 M 567.3505298940211 19.230769230769283 L 567.3505298940211 21.47669848399775 M 571.7996400719857 11.538461538461576 L 571.7996400719857 17.321729365525016 M 571.7996400719857 22.543514879281304 L 571.7996400719857 24.84559236384061 M 576.24875024995 18.332397529477817 L 576.24875024995 22.094329028635627 M 576.24875024995 24.34025828186418 L 576.24875024995 24.733295901179133 M 580.6978604279144 19.06232453677714 L 580.6978604279144 21.36440202133636 M 580.6978604279144 27.03537338573841 L 580.6978604279144 33.09938236945541 M 598.494301139772 7.776530039303793 L 598.494301139772 7.8326782706345455 M 598.494301139772 13.672094329028653 L 598.494301139772 16.98483997754073 M 602.9434113177365 11.763054463784385 L 602.9434113177365 12.324536777091566 M 602.9434113177365 19.511510387422845 L 602.9434113177365 21.36440202133636 M 611.8416316736652 3.846153846153868 L 611.8416316736652 4.351487928130297 M 611.8416316736652 17.827063447501473 L 611.8416316736652 18.613138686131464 M 620.7398520295941 10.808534531162337 L 620.7398520295941 11.145423919146538 M 620.7398520295941 24.957888826502 L 620.7398520295941 28.77596855699045 M 625.1889622075585 21.58899494665917 L 625.1889622075585 26.866928691746267 M 625.1889622075585 31.190342504211145 L 625.1889622075585 32.65019651880971 M 638.5362927414517 22.37507018528916 L 638.5362927414517 23.048848961257733 M 638.5362927414517 28.270634475014106 L 638.5362927414517 32.65019651880971 M 642.9854029194161 28.326782706344773 L 642.9854029194161 29.56204379562044 M 642.9854029194161 35.40145985401463 L 642.9854029194161 36.243683323975375 M 647.4345130973804 30.06737787759687 L 647.4345130973804 32.2571588994947 M 647.4345130973804 33.8854576080854 L 647.4345130973804 39.83717012914093 M 651.8836232753449 33.21167883211683 L 651.8836232753449 34.16619876473894 M 651.8836232753449 51.516002245929315 L 651.8836232753449 55.67097136440205 M 660.7818436312738 46.743402582818646 L 660.7818436312738 47.922515440763675 M 660.7818436312738 72.40314430095454 L 660.7818436312738 72.45929253228528 M 669.6800639872025 63.58787198203257 L 669.6800639872025 67.01291409320606 M 669.6800639872025 74.48062886019093 L 669.6800639872025 78.24256035934869 M 674.1291741651669 66.00224592925323 L 674.1291741651669 70.157215047726 M 674.1291741651669 73.1892195395845 L 674.1291741651669 75.26670409882092 M 683.0273945210957 52.58281864121284 L 683.0273945210957 56.513194834362736 M 683.0273945210957 59.26445816956769 L 683.0273945210957 62.12801796743403 M 687.4765046990602 56.737787759685574 L 687.4765046990602 60.21897810218982 M 687.4765046990602 77.40033688938799 L 687.4765046990602 79.42167321729366 M 691.9256148770246 73.41381246490737 L 691.9256148770246 74.87366647950593 M 691.9256148770246 92.78495227400339 L 691.9256148770246 95.19932622122404 M 709.7220555888822 56.68163952835488 L 709.7220555888822 57.24312184166203 M 709.7220555888822 79.25322852330157 L 709.7220555888822 81.94834362717576 M 718.620275944811 72.01010668163954 L 718.620275944811 74.0314430095452 M 718.620275944811 80.76923076923079 L 718.620275944811 87.00168444693995 M 723.0693861227754 76.33352049410446 L 723.0693861227754 78.52330151600226 M 723.0693861227754 79.64626614261651 L 723.0693861227754 97.66984839977542 M 727.5184963007398 73.4699606962381 L 727.5184963007398 75.71588994946661 M 727.5184963007398 76.10892756878161 L 727.5184963007398 87.22627737226279 M 731.9676064787042 71.28017967434027 L 731.9676064787042 78.46715328467158 M 731.9676064787042 80.48848961257724 L 731.9676064787042 81.72375070185292 M 745.3149370125975 54.997192588433506 L 745.3149370125975 55.16563728242559 M 745.3149370125975 66.90061763054467 L 745.3149370125975 67.4620999438518 M 749.7640471905619 54.04267265581137 L 749.7640471905619 54.323413812464935 M 749.7640471905619 69.65188096574963 L 749.7640471905619 75.82818641212803 M 754.2131573685263 74.48062886019093 L 754.2131573685263 74.70522178551377 M 754.2131573685263 87.39472206625494 L 754.2131573685263 88.1807973048849 M 758.6622675464906 84.02582818641213 L 758.6622675464906 85.48568220101072 M 758.6622675464906 96.20999438517688 L 758.6622675464906 104.51993262212244 M 776.4587082583483 63.92476137001685 L 776.4587082583483 67.23750701852896 M 776.4587082583483 71.95395845030882 L 776.4587082583483 73.52610892756881 M 785.3569286142771 68.07973048848964 L 785.3569286142771 69.03425042111178 M 785.3569286142771 82.79056709713646 L 785.3569286142771 83.0151600224593 M 789.8060387922415 78.46715328467158 L 789.8060387922415 81.44300954519935 M 789.8060387922415 89.19146546883773 L 789.8060387922415 95.53621560920833 M 794.2551489702059 81.16226838854578 L 794.2551489702059 90.08983717012917 M 794.2551489702059 92.72880404267269 L 794.2551489702059 94.18865805727121 M 812.0515896820635 72.01010668163954 L 812.0515896820635 77.17574396406515 M 812.0515896820635 78.86019090398658 L 812.0515896820635 80.43234138124649 M 816.5006998600279 78.01796743402582 L 816.5006998600279 78.69174620999442 M 816.5006998600279 86.21560920830996 L 816.5006998600279 88.46153846153845 M 820.9498100379924 83.23975294778214 L 820.9498100379924 84.02582818641213 M 820.9498100379924 85.6541268950028 L 820.9498100379924 89.64065131948344 M 829.8480303939211 73.4699606962381 L 829.8480303939211 77.3441886580573 M 829.8480303939211 82.6221224031443 L 829.8480303939211 84.75575519371141 M 838.74625074985 66.22683885457613 L 838.74625074985 69.25884334643462 M 838.74625074985 71.61706906232453 L 838.74625074985 72.29084783829312 M 856.5426914617076 50.39303761931504 L 856.5426914617076 52.97585626052782 M 856.5426914617076 53.032004491858544 L 856.5426914617076 54.82874789444136 M 860.9918016396721 51.12296462661428 L 860.9918016396721 52.358225715889944 M 860.9918016396721 56.007860752386364 L 860.9918016396721 60.16282987085907 M 865.4409118176364 54.37956204379563 L 865.4409118176364 56.40089837170132 M 865.4409118176364 57.24312184166203 L 865.4409118176364 63.02638966872547 M 878.7882423515296 50.056148231330724 L 878.7882423515296 53.98652442448068 M 878.7882423515296 56.62549129702418 L 878.7882423515296 58.70297585626054 M 883.237352529494 54.997192588433506 L 883.237352529494 55.614823133071354 M 883.237352529494 60.499719258843356 L 883.237352529494 62.46490735541835" style="stroke-width: 0.8898220355928814px;"></path><path class="candle wick equal" d="M 367.1405718856228 97.61370016844471 L 367.1405718856228 99.41044357102753 M 365.36092781443705 99.41044357102753 l 3.5592881423715257 0 M 367.1405718856228 99.41044357102753 L 367.1405718856228 109.62942167321731 M 656.3327334533093 39.78102189781026 L 656.3327334533093 47.08029197080293 M 654.5530893821235 47.08029197080293 l 3.5592881423715257 0 M 656.3327334533093 47.08029197080293 L 656.3327334533093 53.312745648512106" style="stroke-width: 0.8898220355928814px;"></path></g></g><g class="x axis" transform="translate(0,200)" fill="none" font-size="10" font-family="sans-serif" text-anchor="middle"><path class="domain" stroke="#000" d="M0.5,6V0.5H890.5V6"></path><g class="tick" opacity="1" transform="translate(33.45730853829234,0)"><line stroke="#000" y2="6" x1="0.5" x2="0.5"></line><text fill="#000" y="9" x="0.5" dy="0.71em">Sep 2013</text></g><g class="tick" opacity="1" transform="translate(122.43951209758048,0)"><line stroke="#000" y2="6" x1="0.5" x2="0.5"></line><text fill="#000" y="9" x="0.5" dy="0.71em">Oct 2013</text></g><g class="tick" opacity="1" transform="translate(224.76904619076183,0)"><line stroke="#000" y2="6" x1="0.5" x2="0.5"></line><text fill="#000" y="9" x="0.5" dy="0.71em">Nov 2013</text></g><g class="tick" opacity="1" transform="translate(313.75124975004996,0)"><line stroke="#000" y2="6" x1="0.5" x2="0.5"></line><text fill="#000" y="9" x="0.5" dy="0.71em">Dec 2013</text></g><g class="tick" opacity="1" transform="translate(407.18256348730245,0)"><line stroke="#000" y2="6" x1="0.5" x2="0.5"></line><text fill="#000" y="9" x="0.5" dy="0.71em">2014</text></g><g class="tick" opacity="1" transform="translate(500.613877224555,0)"><line stroke="#000" y2="6" x1="0.5" x2="0.5"></line><text fill="#000" y="9" x="0.5" dy="0.71em">Feb 2014</text></g><g class="tick" opacity="1" transform="translate(585.1469706058788,0)"><line stroke="#000" y2="6" x1="0.5" x2="0.5"></line><text fill="#000" y="9" x="0.5" dy="0.71em">Mar 2014</text></g><g class="tick" opacity="1" transform="translate(678.5782843431314,0)"><line stroke="#000" y2="6" x1="0.5" x2="0.5"></line><text fill="#000" y="9" x="0.5" dy="0.71em">Apr 2014</text></g><g class="tick" opacity="1" transform="translate(772.0095980803839,0)"><line stroke="#000" y2="6" x1="0.5" x2="0.5"></line><text fill="#000" y="9" x="0.5" dy="0.71em">May 2014</text></g><g class="tick" opacity="1" transform="translate(865.4409118176364,0)"><line stroke="#000" y2="6" x1="0.5" x2="0.5"></line><text fill="#000" y="9" x="0.5" dy="0.71em">Jun 2014</text></g></g><g class="y axis" fill="none" font-size="10" font-family="sans-serif" text-anchor="end"><path class="domain" stroke="#000" d="M-6,200.5H0.5V0.5H-6"></path><g class="tick" opacity="1" transform="translate(0,186.8332397529478)"><line stroke="#000" x2="-6" y1="0.5" y2="0.5"></line><text fill="#000" x="-9" y="0.5" dy="0.32em">40</text></g><g class="tick" opacity="1" transform="translate(0,158.75912408759126)"><line stroke="#000" x2="-6" y1="0.5" y2="0.5"></line><text fill="#000" x="-9" y="0.5" dy="0.32em">45</text></g><g class="tick" opacity="1" transform="translate(0,130.68500842223472)"><line stroke="#000" x2="-6" y1="0.5" y2="0.5"></line><text fill="#000" x="-9" y="0.5" dy="0.32em">50</text></g><g class="tick" opacity="1" transform="translate(0,102.61089275687819)"><line stroke="#000" x2="-6" y1="0.5" y2="0.5"></line><text fill="#000" x="-9" y="0.5" dy="0.32em">55</text></g><g class="tick" opacity="1" transform="translate(0,74.53677709152164)"><line stroke="#000" x2="-6" y1="0.5" y2="0.5"></line><text fill="#000" x="-9" y="0.5" dy="0.32em">60</text></g><g class="tick" opacity="1" transform="translate(0,46.46266142616511)"><line stroke="#000" x2="-6" y1="0.5" y2="0.5"></line><text fill="#000" x="-9" y="0.5" dy="0.32em">65</text></g><g class="tick" opacity="1" transform="translate(0,18.38854576080857)"><line stroke="#000" x2="-6" y1="0.5" y2="0.5"></line><text fill="#000" x="-9" y="0.5" dy="0.32em">70</text></g><text transform="rotate(-90)" y="6" dy=".71em" style="text-anchor: end;">Price ($)</text></g></g></svg>
